<?xml version="1.0" standalone="no"?>
<!DOCTYPE svg PUBLIC "-//W3C//DTD SVG 20010904//EN"
 "http://www.w3.org/TR/2001/REC-SVG-20010904/DTD/svg10.dtd">
<svg version="1.0" xmlns="http://www.w3.org/2000/svg"
 width="70.000000pt" height="70.000000pt" viewBox="0 0 70.000000 70.000000"
 preserveAspectRatio="xMidYMid meet">
<metadata>
Created by potrace 1.11, written by Peter Selinger 2001-2013
</metadata>
<g transform="translate(0.000000,70.000000) scale(0.100000,-0.100000)"
fill="#000000" stroke="none">
<path d="M380 360 l0 -160 95 0 c88 0 95 1 95 20 0 18 -7 20 -75 20 l-75 0 0
140 c0 133 -1 140 -20 140 -19 0 -20 -7 -20 -160z"/>
<path d="M190 428 c-27 -15 -39 -60 -21 -82 6 -8 38 -23 71 -35 66 -24 83 -50
54 -82 -12 -13 -30 -19 -58 -19 -46 0 -58 6 -74 35 -9 15 -11 16 -12 4 -1 -43
78 -71 128 -45 68 35 46 94 -45 123 -49 15 -58 22 -61 44 -4 33 18 51 65 51
29 0 42 -6 60 -28 13 -16 23 -24 23 -18 0 44 -82 77 -130 52z"/>
</g>
</svg>
